<svg width="41" height="41" viewBox="0 0 41 41" fill="none" xmlns="http://www.w3.org/2000/svg">
<path d="M37.3965 6.08594H3.60352C1.61253 6.08594 0 7.70848 0 9.68945V31.3105C0 33.3033 1.62438 34.9141 3.60352 34.9141H37.3965C39.3708 34.9141 41 33.3101 41 31.3105V9.68945C41 7.712 39.3939 6.08594 37.3965 6.08594ZM36.8918 8.48828C36.1556 9.2206 23.4856 21.8239 23.0481 22.2591C22.3674 22.9397 21.4625 23.3145 20.5 23.3145C19.5375 23.3145 18.6326 22.9397 17.9497 22.2568C17.6555 21.9641 5.12524 9.49999 4.10817 8.48828H36.8918ZM2.40234 30.8216V10.1799L12.7835 20.5064L2.40234 30.8216ZM4.10969 32.5117L14.4868 22.2006L16.2532 23.9578C17.3876 25.0922 18.8958 25.7169 20.5 25.7169C22.1042 25.7169 23.6124 25.0922 24.7445 23.96L26.5132 22.2006L36.8903 32.5117H4.10969ZM38.5977 30.8216L28.2165 20.5064L38.5977 10.1799V30.8216Z" fill="#E9BE29"/>
</svg>
