<svg width="41" height="29" viewBox="0 0 41 29" fill="none" xmlns="http://www.w3.org/2000/svg">
<path d="M37.3965 0.0859375H3.60352C1.61253 0.0859375 0 1.70848 0 3.68945V25.3105C0 27.3033 1.62438 28.9141 3.60352 28.9141H37.3965C39.3708 28.9141 41 27.3101 41 25.3105V3.68945C41 1.712 39.3939 0.0859375 37.3965 0.0859375ZM36.8918 2.48828C36.1556 3.2206 23.4856 15.8239 23.0481 16.2591C22.3674 16.9397 21.4625 17.3145 20.5 17.3145C19.5375 17.3145 18.6326 16.9397 17.9497 16.2568C17.6555 15.9641 5.12524 3.49999 4.10817 2.48828H36.8918ZM2.40234 24.8216V4.17993L12.7835 14.5064L2.40234 24.8216ZM4.10969 26.5117L14.4868 16.2006L16.2532 17.9578C17.3876 19.0922 18.8958 19.7169 20.5 19.7169C22.1042 19.7169 23.6124 19.0922 24.7445 17.96L26.5132 16.2006L36.8903 26.5117H4.10969ZM38.5977 24.8216L28.2165 14.5064L38.5977 4.17993V24.8216Z" fill="#75BBFD"/>
</svg>
