<svg width="41" height="41" viewBox="0 0 41 41" fill="none" xmlns="http://www.w3.org/2000/svg">
<path d="M32.4029 25.3981C31.5635 24.5241 30.5511 24.0568 29.4781 24.0568C28.4137 24.0568 27.3926 24.5155 26.5186 25.3894L23.7842 28.1152C23.5592 27.9941 23.3342 27.8816 23.1179 27.7691C22.8063 27.6133 22.5121 27.4662 22.2612 27.3105C19.6998 25.6837 17.3721 23.5636 15.1395 20.8205C14.0578 19.4533 13.3309 18.3024 12.8031 17.1342C13.5127 16.4852 14.1703 15.8102 14.8107 15.1612C15.053 14.9189 15.2953 14.668 15.5375 14.4257C17.3547 12.6085 17.3547 10.2548 15.5375 8.43757L13.1752 6.07521C12.9069 5.80695 12.63 5.53005 12.3704 5.25314C11.8512 4.71663 11.3061 4.16282 10.7436 3.64362C9.90423 2.8129 8.90044 2.37158 7.84474 2.37158C6.78903 2.37158 5.76794 2.8129 4.9026 3.64362C4.89395 3.65227 4.89395 3.65227 4.8853 3.66093L1.94316 6.62902C0.835539 7.73665 0.203846 9.08657 0.0653923 10.6528C-0.142288 13.1796 0.601899 15.5333 1.17302 17.0736C2.57486 20.8551 4.66896 24.3597 7.79282 28.1152C11.583 32.6409 16.1433 36.2148 21.3526 38.7329C23.3428 39.6761 25.9994 40.7924 28.9675 40.9827C29.1492 40.9914 29.3396 41 29.5127 41C31.5116 41 33.1903 40.2818 34.5056 38.854C34.5143 38.8367 34.5316 38.8281 34.5403 38.8108C34.9902 38.2656 35.5094 37.7724 36.0546 37.2445C36.4267 36.8897 36.8074 36.5176 37.1795 36.1282C38.0362 35.2369 38.4862 34.1985 38.4862 33.1342C38.4862 32.0612 38.0275 31.0314 37.1536 30.1661L32.4029 25.3981ZM35.5008 34.51C35.4921 34.51 35.4921 34.5187 35.5008 34.51C35.1633 34.8735 34.8172 35.2023 34.4451 35.5658C33.8826 36.1023 33.3115 36.6647 32.775 37.2964C31.901 38.231 30.8712 38.6723 29.5213 38.6723C29.3915 38.6723 29.2531 38.6723 29.1233 38.6636C26.5532 38.4992 24.1649 37.4954 22.3737 36.6388C17.4759 34.2678 13.1752 30.9016 9.60136 26.6355C6.65058 23.079 4.67762 19.7907 3.37096 16.2602C2.5662 14.1055 2.27199 12.4268 2.40179 10.8432C2.48832 9.83075 2.87772 8.99138 3.59595 8.27315L6.54674 5.32237C6.97075 4.92431 7.42072 4.70798 7.86204 4.70798C8.4072 4.70798 8.84852 5.03681 9.12543 5.31371C9.13408 5.32237 9.14273 5.33102 9.15139 5.33967C9.67924 5.83291 10.1811 6.34346 10.709 6.88862C10.9772 7.16553 11.2541 7.44243 11.5311 7.72799L13.8934 10.0904C14.8107 11.0076 14.8107 11.8556 13.8934 12.7729C13.6425 13.0238 13.4002 13.2748 13.1492 13.5171C12.4223 14.2613 11.7301 14.9535 10.9772 15.6285C10.9599 15.6458 10.9426 15.6544 10.934 15.6718C10.1898 16.4159 10.3282 17.1428 10.484 17.6361C10.4927 17.662 10.5013 17.688 10.51 17.7139C11.1243 19.2023 11.9897 20.6041 13.305 22.2742L13.3136 22.2829C15.702 25.225 18.2201 27.5182 20.9978 29.2748C21.3526 29.4998 21.716 29.6815 22.0622 29.8546C22.3737 30.0103 22.6679 30.1574 22.9188 30.3132C22.9534 30.3305 22.9881 30.3565 23.0227 30.3738C23.3169 30.5209 23.5938 30.5901 23.8794 30.5901C24.5976 30.5901 25.0476 30.1401 25.1947 29.993L28.1541 27.0336C28.4483 26.7394 28.9156 26.3846 29.4608 26.3846C29.9973 26.3846 30.4386 26.7221 30.7068 27.0163C30.7155 27.0249 30.7155 27.0249 30.7241 27.0336L35.4921 31.8016C36.3834 32.6842 36.3834 33.5928 35.5008 34.51Z" fill="#75BBFD"/>
<path d="M22.1574 9.75297C24.4246 10.1337 26.484 11.2067 28.1282 12.8509C29.7723 14.495 30.8367 16.5545 31.2261 18.8217C31.3213 19.3928 31.8145 19.7908 32.377 19.7908C32.4462 19.7908 32.5068 19.7822 32.576 19.7735C33.2163 19.6697 33.6404 19.064 33.5365 18.4236C33.0692 15.6805 31.7712 13.1797 29.7896 11.1981C27.808 9.21647 25.3072 7.91847 22.5641 7.45119C21.9237 7.34735 21.3267 7.77136 21.2142 8.40305C21.1017 9.03475 21.517 9.64913 22.1574 9.75297Z" fill="#75BBFD"/>
<path d="M40.9524 18.086C40.1822 13.5689 38.0535 9.45859 34.7826 6.18763C31.5116 2.91668 27.4013 0.787956 22.8842 0.0178098C22.2525 -0.0946835 21.6555 0.337983 21.543 0.969676C21.4391 1.61002 21.8631 2.2071 22.5035 2.3196C26.5359 3.00321 30.2136 4.9156 33.1384 7.83177C36.0633 10.7566 37.967 14.4343 38.6506 18.4667C38.7458 19.0378 39.239 19.4359 39.8015 19.4359C39.8707 19.4359 39.9313 19.4272 40.0005 19.4186C40.6322 19.3234 41.0649 18.7177 40.9524 18.086Z" fill="#75BBFD"/>
</svg>
