<svg width="41" height="41" viewBox="0 0 41 41" fill="none" xmlns="http://www.w3.org/2000/svg">
<path d="M20.2078 19.7499C22.9211 19.7499 25.2702 18.7767 27.1902 16.8567C29.1096 14.937 30.083 12.5882 30.083 9.87461C30.083 7.16197 29.1099 4.81281 27.1899 2.8925C25.2699 0.973135 22.9207 0 20.2078 0C17.4942 0 15.1453 0.973135 13.2257 2.89282C11.306 4.8125 10.3325 7.16166 10.3325 9.87461C10.3325 12.5882 11.306 14.9374 13.2257 16.857C15.146 18.7764 17.4951 19.7499 20.2078 19.7499ZM14.9248 4.59166C16.3978 3.11866 18.1257 2.40265 20.2078 2.40265C22.2895 2.40265 24.0177 3.11866 25.4911 4.59166C26.9641 6.06497 27.6804 7.79321 27.6804 9.87461C27.6804 11.9566 26.9641 13.6846 25.4911 15.1579C24.0177 16.6312 22.2895 17.3472 20.2078 17.3472C18.1264 17.3472 16.3984 16.6309 14.9248 15.1579C13.4515 13.6849 12.7352 11.9566 12.7352 9.87461C12.7352 7.79321 13.4515 6.06497 14.9248 4.59166Z" fill="#75BBFD"/>
<path d="M37.4869 31.527C37.4315 30.7281 37.3195 29.8567 37.1547 28.9364C36.9883 28.0092 36.774 27.1328 36.5175 26.3317C36.2522 25.5037 35.8922 24.686 35.4465 23.9024C34.9844 23.0891 34.4414 22.3809 33.8321 21.7982C33.1949 21.1885 32.4147 20.6984 31.5126 20.3408C30.6136 19.9852 29.6173 19.805 28.5516 19.805C28.1331 19.805 27.7283 19.9767 26.9466 20.4857C26.4655 20.7994 25.9028 21.1623 25.2747 21.5636C24.7376 21.9058 24.01 22.2264 23.1113 22.5167C22.2345 22.8004 21.3443 22.9443 20.4653 22.9443C19.5869 22.9443 18.6967 22.8004 17.8193 22.5167C16.9215 22.2267 16.1936 21.9061 15.6575 21.5639C15.0353 21.1663 14.4722 20.8035 13.984 20.4854C13.2029 19.9764 12.7981 19.8047 12.3796 19.8047C11.3135 19.8047 10.3176 19.9852 9.41888 20.3411C8.51737 20.6981 7.73692 21.1882 7.09911 21.7985C6.48977 22.3816 5.94674 23.0894 5.48504 23.9024C5.03992 24.686 4.67957 25.5034 4.41431 26.332C4.15812 27.1331 3.94385 28.0092 3.77744 28.9364C3.61227 29.8554 3.5006 30.7272 3.44524 31.528C3.39081 32.3109 3.36328 33.1258 3.36328 33.9491C3.36328 36.0893 4.04363 37.8219 5.38525 39.0997C6.7103 40.3606 8.46326 41 10.5956 41H30.3374C32.4692 41 34.2221 40.3606 35.5475 39.0997C36.8894 37.8229 37.5698 36.0896 37.5698 33.9488C37.5695 33.1227 37.5416 32.3078 37.4869 31.527ZM33.8909 37.359C33.0153 38.1923 31.853 38.5974 30.3371 38.5974H10.5956C9.07948 38.5974 7.9171 38.1923 7.04187 37.3593C6.18322 36.5419 5.76594 35.4262 5.76594 33.9491C5.76594 33.1808 5.79128 32.4223 5.84195 31.6941C5.89137 30.9796 5.99241 30.1948 6.14224 29.3609C6.2902 28.5373 6.47851 27.7643 6.70248 27.0646C6.91737 26.3936 7.21047 25.7292 7.57395 25.0892C7.92085 24.4792 8.31999 23.9559 8.76042 23.5343C9.17239 23.1398 9.69164 22.817 10.3035 22.5749C10.8694 22.3509 11.5053 22.2283 12.1956 22.2098C12.2798 22.2546 12.4296 22.34 12.6724 22.4982C13.1663 22.8201 13.7356 23.1874 14.365 23.5893C15.0744 24.0416 15.9884 24.4501 17.0804 24.8027C18.1968 25.1637 19.3354 25.347 20.4656 25.347C21.5958 25.347 22.7347 25.1637 23.8505 24.803C24.9434 24.4498 25.8571 24.0416 26.5675 23.5887C27.2115 23.177 27.7649 22.8204 28.2588 22.4982C28.5016 22.3403 28.6514 22.2546 28.7355 22.2098C29.4262 22.2283 30.0621 22.3509 30.6283 22.5749C31.2399 22.817 31.7591 23.1401 32.1711 23.5343C32.6115 23.9556 33.0106 24.4789 33.3575 25.0895C33.7213 25.7292 34.0147 26.3939 34.2293 27.0643C34.4536 27.7649 34.6422 28.5376 34.7899 29.3606C34.9394 30.1961 35.0407 30.9812 35.0902 31.6944V31.695C35.1412 32.4204 35.1668 33.1786 35.1671 33.9491C35.1668 35.4265 34.7495 36.5419 33.8909 37.359Z" fill="#75BBFD"/>
</svg>
