<svg width="30" height="18" viewBox="0 0 30 18" fill="none" xmlns="http://www.w3.org/2000/svg">
<path d="M26.5996 7.59756C27.0262 7.04606 27.3649 6.60356 27.615 6.26971C29.4164 3.87473 30.1972 2.34479 29.9579 1.67777L29.864 1.52156C29.8016 1.42772 29.6399 1.34156 29.3798 1.26356C29.1194 1.18562 28.7862 1.17317 28.3803 1.22462L23.8819 1.25635C23.7778 1.24598 23.6736 1.2484 23.5694 1.26356C23.4653 1.2794 23.3977 1.29529 23.3663 1.31045C23.3349 1.32634 23.309 1.33908 23.2883 1.34945L23.2259 1.39633C23.1739 1.42739 23.1167 1.48222 23.0542 1.56055C22.9917 1.63883 22.9393 1.72956 22.8979 1.83405C22.4086 3.09392 21.8515 4.26555 21.2267 5.34853C20.8413 5.99419 20.4871 6.55431 20.1647 7.02747C19.8419 7.5017 19.5711 7.85042 19.3524 8.07387C19.1338 8.29771 18.9358 8.47771 18.7589 8.61263C18.5816 8.7485 18.4464 8.80542 18.353 8.78474C18.2591 8.76405 18.1705 8.74337 18.0874 8.72196C17.9415 8.62852 17.8242 8.50121 17.736 8.33947C17.6474 8.17847 17.5877 7.97525 17.5562 7.73039C17.5252 7.48586 17.5066 7.27481 17.5018 7.09752C17.4962 6.92062 17.499 6.67091 17.5097 6.34771C17.5201 6.02485 17.5252 5.80659 17.5252 5.69173C17.5252 5.29646 17.5331 4.86675 17.5488 4.40323C17.5643 3.94004 17.5774 3.57272 17.5877 3.30193C17.5981 3.03154 17.6032 2.74492 17.6032 2.4428C17.6032 2.14135 17.5849 1.90404 17.5482 1.73199C17.5117 1.56055 17.4569 1.39397 17.3845 1.23223C17.3114 1.07116 17.2048 0.945943 17.064 0.85769C16.9234 0.769043 16.7491 0.69905 16.5409 0.646583C15.9887 0.521362 15.2858 0.454468 14.4322 0.443479C12.4953 0.423472 11.2509 0.5483 10.6991 0.818692C10.4804 0.933544 10.2824 1.08942 10.1055 1.2874C9.91791 1.51677 9.89204 1.64193 10.0276 1.66194C10.6525 1.75577 11.0947 1.97995 11.3551 2.3338L11.4489 2.52107C11.5217 2.65694 11.5945 2.89634 11.6676 3.23983C11.7404 3.58337 11.7873 3.96343 11.8083 4.38006C11.8604 5.14018 11.8604 5.79069 11.8083 6.33255C11.7562 6.87435 11.7069 7.29583 11.66 7.59727C11.6131 7.8994 11.5427 8.14392 11.4493 8.33119C11.3554 8.51913 11.293 8.63365 11.2616 8.67535C11.2303 8.71672 11.2044 8.74292 11.1837 8.75335C11.0482 8.80508 10.9078 8.83129 10.7619 8.83129C10.616 8.83129 10.4391 8.75814 10.2308 8.61223C10.0224 8.46706 9.80621 8.26632 9.58271 8.01109C9.35853 7.75625 9.10639 7.3993 8.82496 6.9409C8.54386 6.48324 8.25205 5.94139 7.95027 5.3168L7.70056 4.86359C7.54434 4.57252 7.33081 4.14794 7.06008 3.59092C6.78935 3.03391 6.54961 2.49521 6.34166 1.97409C6.2582 1.75577 6.13331 1.58918 5.96678 1.47433L5.88885 1.42744C5.83677 1.38602 5.75331 1.34156 5.6388 1.29495C5.52394 1.24806 5.40464 1.21425 5.27942 1.19323L0.99963 1.22428C0.562313 1.22428 0.265715 1.32364 0.109498 1.52156L0.0470567 1.61505C0.0154977 1.66746 0 1.75092 0 1.8651C0 1.97995 0.0313899 2.12033 0.0938315 2.28658C0.718755 3.75514 1.39823 5.17129 2.13215 6.53498C2.86646 7.89939 3.50417 8.99821 4.04563 9.83114C4.58709 10.6647 5.13893 11.4504 5.70146 12.1898C6.264 12.9293 6.63612 13.4028 6.8182 13.6108C7.00028 13.8195 7.14343 13.9757 7.24763 14.0795L7.63806 14.4547C7.88777 14.7045 8.25509 15.0038 8.73935 15.3528C9.22356 15.7018 9.75955 16.0454 10.3483 16.3834C10.9364 16.7221 11.6213 16.9976 12.4021 17.2115C13.183 17.4253 13.9431 17.5111 14.6825 17.4691H16.4788C16.8434 17.438 17.1192 17.3239 17.3065 17.1255L17.3689 17.0476C17.4103 16.9855 17.4496 16.889 17.4861 16.7589C17.5224 16.6289 17.5411 16.4854 17.5411 16.3295C17.5303 15.8819 17.5645 15.4777 17.6425 15.119C17.7204 14.7596 17.809 14.4892 17.9081 14.3064C18.007 14.1246 18.1187 13.9708 18.2439 13.8456C18.3688 13.7204 18.4571 13.6455 18.5095 13.6193C18.5616 13.5938 18.6034 13.5756 18.6344 13.5645C18.8841 13.4813 19.1783 13.5621 19.517 13.8066C19.8553 14.0519 20.173 14.3533 20.4699 14.7126C20.7665 15.072 21.1231 15.4752 21.5398 15.9232C21.9561 16.3708 22.3206 16.704 22.6331 16.9227L22.9456 17.1107C23.1538 17.2352 23.4242 17.3497 23.7578 17.4542C24.0909 17.558 24.3827 17.5842 24.6324 17.5321L28.6311 17.4694C29.0267 17.4694 29.334 17.4046 29.5527 17.2742C29.7713 17.1448 29.9014 17.0007 29.9431 16.8448C29.9845 16.6886 29.9873 16.5123 29.9511 16.314C29.9146 16.1163 29.878 15.9784 29.8418 15.9004C29.8053 15.8225 29.7714 15.757 29.74 15.7052C29.2193 14.7681 28.2249 13.6172 26.7566 12.2532L26.7253 12.2221L26.7098 12.2063L26.6943 12.1911H26.6786C26.0119 11.5558 25.5904 11.1288 25.4135 10.9098C25.0907 10.4939 25.0176 10.0721 25.1949 9.64511C25.319 9.32135 25.7874 8.63917 26.5996 7.59756Z" fill="#0C6BDC"/>
</svg>
